<svg xmlns="http://www.w3.org/2000/svg" xmlns:xlink="http://www.w3.org/1999/xlink" width="320" zoomAndPan="magnify" viewBox="0 0 240 98.999996" height="132" preserveAspectRatio="xMidYMid meet" version="1.0"><defs><clipPath id="c14ebd74bb"><path d="M 30.460938 15.683594 L 94.71875 15.683594 L 94.71875 83.363281 L 30.460938 83.363281 Z M 30.460938 15.683594 " clip-rule="nonzero"/></clipPath></defs><rect x="-24" width="288" fill="#ffffff" y="-9.9" height="118.799995" fill-opacity="1"/><rect x="-24" width="288" fill="#ffffff" y="-9.9" height="118.799995" fill-opacity="1"/><g clip-path="url(#c14ebd74bb)"><path fill="#0a1d56" d="M 94.601562 15.691406 L 82.074219 27.765625 C 76.796875 23.617188 70.984375 21.355469 61.929688 21.355469 C 45.40625 21.355469 33.328125 34.03125 33.328125 49.503906 L 33.328125 49.652344 C 33.328125 58.03125 36.421875 65.273438 41.859375 70.328125 L 30.460938 83.308594 C 54.539062 60.0625 72.648438 40.96875 94.601562 15.691406 Z M 45.859375 49.34375 C 45.859375 40.0625 52.796875 32.367188 61.476562 32.367188 C 66.683594 32.367188 70.082031 33.726562 73.476562 36.140625 C 64.570312 44.746094 57.933594 51.835938 49.785156 61.121094 C 47.296875 58.101562 45.863281 54.101562 45.863281 49.496094 L 45.863281 49.34375 Z M 45.859375 49.34375 " fill-opacity="1" fill-rule="evenodd"/></g><path fill="#0a1d56" d="M 62.003906 55.757812 L 73.703125 55.757812 L 73.703125 63.527344 C 70.609375 65.714844 66.761719 66.84375 62.382812 66.84375 C 59.136719 66.84375 56.199219 66.015625 53.703125 64.507812 L 45.480469 73.113281 C 50.003906 76.054688 55.671875 77.710938 62.003906 77.710938 C 71.96875 77.710938 79.664062 73.867188 85.246094 69.109375 L 85.246094 45.421875 L 71.816406 45.421875 Z M 62.003906 55.757812 " fill-opacity="1" fill-rule="evenodd"/><path fill="#ff0800" d="M 101.878906 50.566406 L 101.878906 57.414062 C 101.878906 59.390625 101.242188 60.773438 99.96875 61.566406 L 101.742188 68.886719 C 101.851562 69.292969 101.695312 69.496094 101.269531 69.496094 L 97.929688 69.496094 C 97.609375 69.496094 97.414062 69.335938 97.351562 69.015625 L 95.71875 62.316406 L 92.691406 62.316406 L 92.691406 68.953125 C 92.691406 69.316406 92.503906 69.496094 92.140625 69.496094 L 88.8125 69.496094 C 88.441406 69.496094 88.261719 69.316406 88.261719 68.953125 L 88.261719 46.214844 C 88.261719 45.851562 88.441406 45.664062 88.8125 45.664062 L 96.980469 45.664062 C 98.585938 45.664062 99.804688 46.082031 100.628906 46.914062 C 101.464844 47.742188 101.878906 48.960938 101.878906 50.566406 Z M 92.691406 57.925781 L 96.089844 57.925781 C 96.996094 57.925781 97.449219 57.46875 97.449219 56.554688 L 97.449219 51.414062 C 97.449219 50.511719 96.996094 50.054688 96.089844 50.054688 L 92.691406 50.054688 Z M 92.691406 57.925781 " fill-opacity="1" fill-rule="nonzero"/><path fill="#ff0800" d="M 105.277344 64.59375 L 105.277344 50.566406 C 105.277344 48.960938 105.695312 47.742188 106.535156 46.914062 C 107.375 46.082031 108.589844 45.664062 110.175781 45.664062 L 113.996094 45.664062 C 115.601562 45.664062 116.820312 46.082031 117.644531 46.914062 C 118.480469 47.742188 118.894531 48.960938 118.894531 50.566406 L 118.894531 64.59375 C 118.894531 66.183594 118.480469 67.394531 117.644531 68.234375 C 116.820312 69.074219 115.601562 69.496094 113.996094 69.496094 L 110.175781 69.496094 C 108.589844 69.496094 107.375 69.074219 106.535156 68.234375 C 105.695312 67.394531 105.277344 66.183594 105.277344 64.59375 Z M 111.066406 65.105469 L 113.246094 65.105469 C 114.152344 65.105469 114.605469 64.652344 114.605469 63.746094 L 114.605469 51.414062 C 114.605469 50.511719 114.152344 50.054688 113.246094 50.054688 L 111.066406 50.054688 C 110.160156 50.054688 109.707031 50.511719 109.707031 51.414062 L 109.707031 63.746094 C 109.707031 64.652344 110.160156 65.105469 111.066406 65.105469 Z M 111.066406 65.105469 " fill-opacity="1" fill-rule="nonzero"/><path fill="#ff0800" d="M 127.191406 45.664062 L 131.011719 45.664062 C 132.617188 45.664062 133.835938 46.082031 134.660156 46.914062 C 135.496094 47.742188 135.910156 48.960938 135.910156 50.566406 L 135.910156 52.816406 C 135.910156 53.183594 135.726562 53.363281 135.363281 53.363281 L 131.933594 53.363281 C 131.566406 53.363281 131.382812 53.183594 131.382812 52.816406 L 131.382812 51.386719 C 131.382812 50.480469 130.925781 50.023438 130.023438 50.023438 L 128.152344 50.023438 C 127.246094 50.023438 126.792969 50.480469 126.792969 51.386719 L 126.792969 54.273438 L 135.023438 56.933594 C 135.613281 57.140625 135.910156 57.5625 135.910156 58.195312 L 135.910156 64.59375 C 135.910156 66.183594 135.496094 67.394531 134.660156 68.234375 C 133.835938 69.074219 132.617188 69.496094 131.011719 69.496094 L 127.191406 69.496094 C 125.605469 69.496094 124.390625 69.074219 123.550781 68.234375 C 122.710938 67.394531 122.292969 66.183594 122.292969 64.59375 L 122.292969 62.386719 C 122.292969 62.019531 122.472656 61.835938 122.84375 61.835938 L 126.273438 61.835938 C 126.636719 61.835938 126.820312 62.019531 126.820312 62.386719 L 126.820312 63.816406 C 126.820312 64.722656 127.273438 65.175781 128.183594 65.175781 L 130.023438 65.175781 C 130.925781 65.175781 131.382812 64.722656 131.382812 63.816406 L 131.382812 60.375 L 123.210938 57.714844 C 122.597656 57.515625 122.292969 57.09375 122.292969 56.453125 L 122.292969 50.566406 C 122.292969 48.960938 122.710938 47.742188 123.550781 46.914062 C 124.390625 46.082031 125.605469 45.664062 127.191406 45.664062 Z M 127.191406 45.664062 " fill-opacity="1" fill-rule="nonzero"/><path fill="#ff0800" d="M 152.957031 50.566406 L 152.957031 54.246094 C 152.957031 54.605469 152.777344 54.785156 152.417969 54.785156 L 149.21875 54.785156 C 148.851562 54.785156 148.667969 54.605469 148.667969 54.246094 L 148.667969 51.453125 C 148.667969 50.550781 148.210938 50.09375 147.308594 50.09375 L 145.128906 50.09375 C 144.21875 50.09375 143.769531 50.550781 143.769531 51.453125 L 143.769531 63.816406 C 143.769531 64.722656 144.21875 65.175781 145.128906 65.175781 L 147.308594 65.175781 C 148.210938 65.175781 148.667969 64.722656 148.667969 63.816406 L 148.667969 60.914062 C 148.667969 60.554688 148.851562 60.375 149.21875 60.375 L 152.417969 60.375 C 152.777344 60.375 152.957031 60.554688 152.957031 60.914062 L 152.957031 64.59375 C 152.957031 66.183594 152.539062 67.394531 151.699219 68.234375 C 150.859375 69.074219 149.644531 69.496094 148.058594 69.496094 L 144.246094 69.496094 C 142.660156 69.496094 141.441406 69.074219 140.585938 68.234375 C 139.734375 67.394531 139.308594 66.183594 139.308594 64.59375 L 139.308594 50.566406 C 139.308594 48.960938 139.734375 47.742188 140.585938 46.914062 C 141.441406 46.082031 142.660156 45.664062 144.246094 45.664062 L 148.058594 45.664062 C 149.644531 45.664062 150.859375 46.082031 151.699219 46.914062 C 152.539062 47.742188 152.957031 48.960938 152.957031 50.566406 Z M 152.957031 50.566406 " fill-opacity="1" fill-rule="nonzero"/><path fill="#ff0800" d="M 156.355469 64.59375 L 156.355469 50.566406 C 156.355469 48.960938 156.777344 47.742188 157.617188 46.914062 C 158.457031 46.082031 159.667969 45.664062 161.257812 45.664062 L 165.078125 45.664062 C 166.683594 45.664062 167.898438 46.082031 168.726562 46.914062 C 169.558594 47.742188 169.976562 48.960938 169.976562 50.566406 L 169.976562 64.59375 C 169.976562 66.183594 169.558594 67.394531 168.726562 68.234375 C 167.898438 69.074219 166.683594 69.496094 165.078125 69.496094 L 161.257812 69.496094 C 159.667969 69.496094 158.457031 69.074219 157.617188 68.234375 C 156.777344 67.394531 156.355469 66.183594 156.355469 64.59375 Z M 162.148438 65.105469 L 164.328125 65.105469 C 165.230469 65.105469 165.6875 64.652344 165.6875 63.746094 L 165.6875 51.414062 C 165.6875 50.511719 165.230469 50.054688 164.328125 50.054688 L 162.148438 50.054688 C 161.238281 50.054688 160.789062 50.511719 160.789062 51.414062 L 160.789062 63.746094 C 160.789062 64.652344 161.238281 65.105469 162.148438 65.105469 Z M 162.148438 65.105469 " fill-opacity="1" fill-rule="nonzero"/><path fill="#ff0800" d="M 173.371094 68.953125 L 173.371094 46.214844 C 173.371094 45.851562 173.554688 45.664062 173.921875 45.664062 L 182.09375 45.664062 C 183.699219 45.664062 184.914062 46.082031 185.742188 46.914062 C 186.574219 47.742188 186.992188 48.960938 186.992188 50.566406 L 186.992188 57.246094 C 186.992188 58.832031 186.574219 60.039062 185.742188 60.863281 C 184.914062 61.691406 183.699219 62.121094 182.09375 62.144531 L 177.800781 62.175781 L 177.800781 68.984375 C 177.800781 69.34375 177.617188 69.523438 177.253906 69.523438 L 173.921875 69.496094 C 173.554688 69.496094 173.371094 69.316406 173.371094 68.953125 Z M 177.800781 57.785156 L 181.203125 57.753906 C 182.105469 57.753906 182.5625 57.300781 182.5625 56.386719 L 182.5625 51.414062 C 182.5625 50.511719 182.105469 50.054688 181.203125 50.054688 L 177.800781 50.09375 Z M 177.800781 57.785156 " fill-opacity="1" fill-rule="nonzero"/><path fill="#ff0800" d="M 203.96875 46.214844 L 203.96875 49.613281 C 203.96875 50.003906 203.789062 50.195312 203.429688 50.195312 L 195.019531 50.195312 L 195.019531 55.433594 L 201.417969 55.433594 C 201.78125 55.433594 201.96875 55.628906 201.96875 56.015625 L 201.96875 59.386719 C 201.96875 59.773438 201.78125 59.964844 201.417969 59.964844 L 195.019531 59.964844 L 195.019531 65.003906 L 203.429688 65.003906 C 203.789062 65.003906 203.96875 65.183594 203.96875 65.542969 L 203.96875 68.953125 C 203.96875 69.316406 203.789062 69.496094 203.429688 69.496094 L 190.898438 69.496094 C 190.558594 69.496094 190.386719 69.316406 190.386719 68.953125 L 190.386719 46.214844 C 190.386719 45.851562 190.558594 45.664062 190.898438 45.664062 L 203.429688 45.664062 C 203.789062 45.664062 203.96875 45.851562 203.96875 46.214844 Z M 203.96875 46.214844 " fill-opacity="1" fill-rule="nonzero"/><path fill="#1a1a1a" d="M 91.210938 78.824219 L 90.070312 78.824219 L 90.070312 74.261719 L 88.652344 74.261719 L 88.652344 73.132812 L 92.632812 73.132812 L 92.632812 74.261719 L 91.210938 74.261719 Z M 91.210938 78.824219 " fill-opacity="1" fill-rule="nonzero"/><path fill="#1a1a1a" d="M 96.441406 78.824219 L 93.492188 78.824219 L 93.492188 73.121094 L 96.339844 73.121094 L 96.339844 74.261719 L 94.632812 74.261719 L 94.632812 75.402344 L 96.132812 75.402344 L 96.132812 76.542969 L 94.632812 76.542969 L 94.632812 77.683594 L 96.441406 77.683594 Z M 96.441406 78.824219 " fill-opacity="1" fill-rule="nonzero"/><path fill="#1a1a1a" d="M 101.128906 74.441406 C 101.019531 74.390625 100.890625 74.335938 100.738281 74.28125 C 100.589844 74.230469 100.390625 74.203125 100.148438 74.203125 C 99.820312 74.203125 99.539062 74.269531 99.308594 74.394531 C 99.078125 74.511719 98.898438 74.679688 98.757812 74.882812 C 98.621094 75.089844 98.53125 75.316406 98.488281 75.5625 C 98.441406 75.808594 98.441406 76.058594 98.488281 76.3125 C 98.53125 76.558594 98.621094 76.789062 98.757812 76.992188 C 98.898438 77.199219 99.078125 77.367188 99.308594 77.492188 C 99.539062 77.613281 99.820312 77.671875 100.148438 77.671875 C 100.390625 77.671875 100.609375 77.648438 100.796875 77.59375 C 100.988281 77.53125 101.140625 77.476562 101.246094 77.421875 L 101.398438 78.601562 C 101.21875 78.671875 101.011719 78.726562 100.789062 78.773438 C 100.558594 78.820312 100.347656 78.84375 100.148438 78.84375 C 99.660156 78.84375 99.238281 78.761719 98.878906 78.601562 C 98.515625 78.4375 98.210938 78.21875 97.96875 77.941406 C 97.726562 77.664062 97.546875 77.351562 97.425781 77.011719 C 97.308594 76.667969 97.246094 76.308594 97.246094 75.941406 C 97.246094 75.578125 97.308594 75.222656 97.425781 74.882812 C 97.546875 74.539062 97.726562 74.226562 97.96875 73.953125 C 98.210938 73.679688 98.515625 73.460938 98.878906 73.304688 C 99.238281 73.136719 99.660156 73.054688 100.148438 73.054688 C 100.558594 73.054688 100.933594 73.128906 101.265625 73.273438 Z M 101.128906 74.441406 " fill-opacity="1" fill-rule="nonzero"/><path fill="#1a1a1a" d="M 106.285156 78.824219 L 105.144531 78.824219 L 105.144531 76.542969 L 103.445312 76.542969 L 103.445312 78.824219 L 102.304688 78.824219 L 102.304688 73.121094 L 103.445312 73.121094 L 103.445312 75.402344 L 105.144531 75.402344 L 105.144531 73.121094 L 106.285156 73.121094 Z M 106.285156 78.824219 " fill-opacity="1" fill-rule="nonzero"/><path fill="#1a1a1a" d="M 108.710938 75.722656 L 108.710938 78.824219 L 107.574219 78.824219 L 107.574219 73.003906 L 107.871094 73.003906 L 110.753906 76.351562 L 110.753906 73.132812 L 111.902344 73.132812 L 111.902344 78.941406 L 111.59375 78.941406 Z M 108.710938 75.722656 " fill-opacity="1" fill-rule="nonzero"/><path fill="#1a1a1a" d="M 115.921875 78.902344 C 115.433594 78.902344 115.003906 78.824219 114.632812 78.664062 C 114.265625 78.496094 113.957031 78.273438 113.710938 77.992188 C 113.464844 77.710938 113.28125 77.398438 113.164062 77.054688 C 113.042969 76.699219 112.984375 76.339844 112.984375 75.972656 C 112.984375 75.601562 113.042969 75.242188 113.164062 74.894531 C 113.28125 74.539062 113.464844 74.222656 113.710938 73.941406 C 113.957031 73.664062 114.265625 73.441406 114.632812 73.28125 C 115.003906 73.117188 115.433594 73.03125 115.921875 73.03125 C 116.40625 73.03125 116.835938 73.117188 117.203125 73.28125 C 117.574219 73.441406 117.882812 73.664062 118.121094 73.941406 C 118.367188 74.222656 118.550781 74.539062 118.671875 74.894531 C 118.796875 75.242188 118.863281 75.601562 118.863281 75.972656 C 118.863281 76.339844 118.796875 76.699219 118.671875 77.054688 C 118.550781 77.398438 118.367188 77.710938 118.121094 77.992188 C 117.882812 78.273438 117.574219 78.496094 117.203125 78.664062 C 116.835938 78.824219 116.40625 78.902344 115.921875 78.902344 Z M 115.921875 77.722656 C 116.246094 77.722656 116.527344 77.660156 116.761719 77.53125 C 116.996094 77.40625 117.175781 77.242188 117.3125 77.03125 C 117.453125 76.820312 117.546875 76.589844 117.59375 76.34375 C 117.636719 76.089844 117.636719 75.839844 117.59375 75.59375 C 117.546875 75.339844 117.453125 75.109375 117.3125 74.902344 C 117.175781 74.691406 116.996094 74.519531 116.761719 74.394531 C 116.527344 74.269531 116.246094 74.203125 115.921875 74.203125 C 115.59375 74.203125 115.316406 74.269531 115.082031 74.394531 C 114.847656 74.519531 114.664062 74.691406 114.523438 74.902344 C 114.386719 75.109375 114.296875 75.339844 114.242188 75.59375 C 114.195312 75.839844 114.195312 76.089844 114.242188 76.34375 C 114.296875 76.589844 114.386719 76.820312 114.523438 77.03125 C 114.664062 77.242188 114.847656 77.40625 115.082031 77.53125 C 115.316406 77.660156 115.59375 77.722656 115.921875 77.722656 Z M 115.921875 77.722656 " fill-opacity="1" fill-rule="nonzero"/><path fill="#1a1a1a" d="M 119.933594 73.121094 L 121.074219 73.121094 L 121.074219 77.683594 L 122.882812 77.683594 L 122.882812 78.824219 L 119.933594 78.824219 Z M 119.933594 73.121094 " fill-opacity="1" fill-rule="nonzero"/><path fill="#1a1a1a" d="M 126.601562 78.902344 C 126.113281 78.902344 125.683594 78.824219 125.3125 78.664062 C 124.945312 78.496094 124.636719 78.273438 124.390625 77.992188 C 124.144531 77.710938 123.960938 77.398438 123.839844 77.054688 C 123.722656 76.699219 123.660156 76.339844 123.660156 75.972656 C 123.660156 75.601562 123.722656 75.242188 123.839844 74.894531 C 123.960938 74.539062 124.144531 74.222656 124.390625 73.941406 C 124.636719 73.664062 124.945312 73.441406 125.3125 73.28125 C 125.683594 73.117188 126.113281 73.03125 126.601562 73.03125 C 127.085938 73.03125 127.515625 73.117188 127.882812 73.28125 C 128.253906 73.441406 128.5625 73.664062 128.800781 73.941406 C 129.046875 74.222656 129.230469 74.539062 129.351562 74.894531 C 129.476562 75.242188 129.542969 75.601562 129.542969 75.972656 C 129.542969 76.339844 129.476562 76.699219 129.351562 77.054688 C 129.230469 77.398438 129.046875 77.710938 128.800781 77.992188 C 128.5625 78.273438 128.253906 78.496094 127.882812 78.664062 C 127.515625 78.824219 127.085938 78.902344 126.601562 78.902344 Z M 126.601562 77.722656 C 126.925781 77.722656 127.207031 77.660156 127.441406 77.53125 C 127.675781 77.40625 127.855469 77.242188 127.992188 77.03125 C 128.132812 76.820312 128.222656 76.589844 128.273438 76.34375 C 128.316406 76.089844 128.316406 75.839844 128.273438 75.59375 C 128.222656 75.339844 128.132812 75.109375 127.992188 74.902344 C 127.855469 74.691406 127.675781 74.519531 127.441406 74.394531 C 127.207031 74.269531 126.925781 74.203125 126.601562 74.203125 C 126.273438 74.203125 125.996094 74.269531 125.761719 74.394531 C 125.527344 74.519531 125.339844 74.691406 125.203125 74.902344 C 125.066406 75.109375 124.972656 75.339844 124.921875 75.59375 C 124.875 75.839844 124.875 76.089844 124.921875 76.34375 C 124.972656 76.589844 125.066406 76.820312 125.203125 77.03125 C 125.339844 77.242188 125.527344 77.40625 125.761719 77.53125 C 125.996094 77.660156 126.273438 77.722656 126.601562 77.722656 Z M 126.601562 77.722656 " fill-opacity="1" fill-rule="nonzero"/><path fill="#1a1a1a" d="M 134.722656 78.472656 C 134.5 78.59375 134.265625 78.6875 134.019531 78.753906 C 133.773438 78.820312 133.515625 78.851562 133.25 78.851562 C 132.777344 78.851562 132.359375 78.773438 132 78.613281 C 131.644531 78.453125 131.347656 78.242188 131.101562 77.972656 C 130.859375 77.707031 130.675781 77.40625 130.550781 77.074219 C 130.421875 76.734375 130.355469 76.382812 130.351562 76.023438 C 130.34375 75.65625 130.394531 75.304688 130.511719 74.960938 C 130.632812 74.621094 130.804688 74.316406 131.042969 74.042969 C 131.28125 73.761719 131.582031 73.539062 131.953125 73.363281 C 132.316406 73.191406 132.75 73.09375 133.25 73.074219 C 133.476562 73.066406 133.683594 73.082031 133.871094 73.113281 C 134.054688 73.140625 134.214844 73.171875 134.339844 73.210938 C 134.464844 73.246094 134.546875 73.269531 134.582031 73.28125 L 134.441406 74.441406 C 134.328125 74.390625 134.171875 74.339844 133.980469 74.292969 C 133.792969 74.242188 133.550781 74.21875 133.25 74.234375 C 132.917969 74.246094 132.632812 74.320312 132.402344 74.453125 C 132.171875 74.582031 131.992188 74.75 131.851562 74.960938 C 131.714844 75.171875 131.625 75.398438 131.582031 75.644531 C 131.542969 75.882812 131.542969 76.128906 131.589844 76.371094 C 131.644531 76.613281 131.742188 76.835938 131.882812 77.042969 C 132.019531 77.25 132.203125 77.414062 132.429688 77.53125 C 132.664062 77.652344 132.9375 77.710938 133.25 77.710938 C 133.304688 77.710938 133.355469 77.710938 133.402344 77.703125 C 133.453125 77.699219 133.507812 77.691406 133.5625 77.683594 L 133.5625 75.972656 L 134.722656 75.972656 Z M 134.722656 78.472656 " fill-opacity="1" fill-rule="nonzero"/><path fill="#1a1a1a" d="M 137.363281 78.824219 L 137.363281 76.253906 L 135.382812 73.121094 L 136.765625 73.121094 L 137.933594 75.082031 L 139.09375 73.121094 L 140.496094 73.121094 L 138.496094 76.253906 L 138.496094 78.824219 Z M 137.363281 78.824219 " fill-opacity="1" fill-rule="nonzero"/><path fill="#1a1a1a" d="M 144.550781 78.824219 L 143.410156 78.824219 L 143.410156 73.132812 L 145.648438 73.132812 C 145.96875 73.132812 146.238281 73.199219 146.460938 73.324219 C 146.683594 73.449219 146.863281 73.617188 147 73.824219 C 147.132812 74.03125 147.222656 74.261719 147.269531 74.511719 C 147.316406 74.769531 147.316406 75.019531 147.269531 75.273438 C 147.222656 75.519531 147.128906 75.746094 146.988281 75.953125 C 146.855469 76.160156 146.675781 76.328125 146.449219 76.453125 C 146.230469 76.582031 145.960938 76.644531 145.648438 76.644531 L 144.550781 76.644531 Z M 144.550781 75.542969 L 145.550781 75.542969 C 145.703125 75.542969 145.824219 75.5 145.910156 75.414062 C 146.003906 75.328125 146.066406 75.21875 146.101562 75.09375 C 146.132812 74.96875 146.132812 74.839844 146.101562 74.710938 C 146.066406 74.585938 146.003906 74.480469 145.910156 74.394531 C 145.824219 74.308594 145.703125 74.261719 145.550781 74.261719 L 144.550781 74.261719 Z M 144.550781 75.542969 " fill-opacity="1" fill-rule="nonzero"/><path fill="#1a1a1a" d="M 151.046875 78.824219 L 149.90625 76.644531 L 149.355469 76.644531 L 149.355469 78.824219 L 148.214844 78.824219 L 148.214844 73.121094 L 150.464844 73.121094 C 150.804688 73.121094 151.089844 73.191406 151.324219 73.332031 C 151.558594 73.472656 151.742188 73.65625 151.875 73.882812 C 152.007812 74.109375 152.089844 74.359375 152.125 74.621094 C 152.15625 74.882812 152.136719 75.140625 152.066406 75.394531 C 151.992188 75.648438 151.867188 75.871094 151.695312 76.0625 C 151.527344 76.257812 151.300781 76.394531 151.015625 76.472656 L 152.34375 78.824219 Z M 149.355469 75.542969 L 150.355469 75.542969 C 150.507812 75.542969 150.628906 75.5 150.726562 75.414062 C 150.816406 75.328125 150.878906 75.21875 150.914062 75.09375 C 150.949219 74.96875 150.949219 74.839844 150.914062 74.710938 C 150.878906 74.585938 150.816406 74.480469 150.726562 74.394531 C 150.628906 74.308594 150.507812 74.261719 150.355469 74.261719 L 149.355469 74.261719 Z M 149.355469 75.542969 " fill-opacity="1" fill-rule="nonzero"/><path fill="#1a1a1a" d="M 153.101562 73.121094 L 154.242188 73.121094 L 154.242188 78.824219 L 153.101562 78.824219 Z M 153.101562 73.121094 " fill-opacity="1" fill-rule="nonzero"/><path fill="#1a1a1a" d="M 157.292969 78.941406 L 154.933594 73.121094 L 156.242188 73.121094 L 157.003906 75.023438 L 157.414062 76.203125 L 157.824219 75.0625 L 158.59375 73.121094 L 159.902344 73.121094 L 157.542969 78.941406 Z M 157.292969 78.941406 " fill-opacity="1" fill-rule="nonzero"/><path fill="#1a1a1a" d="M 160.089844 78.824219 L 162.488281 72.914062 L 162.609375 72.914062 L 165 78.824219 L 163.71875 78.824219 L 163.488281 78.210938 L 161.601562 78.210938 L 161.378906 78.824219 Z M 162.019531 77.144531 L 163.070312 77.144531 L 162.550781 75.664062 Z M 162.019531 77.144531 " fill-opacity="1" fill-rule="nonzero"/><path fill="#1a1a1a" d="M 167.882812 78.824219 L 166.742188 78.824219 L 166.742188 74.261719 L 165.324219 74.261719 L 165.324219 73.132812 L 169.304688 73.132812 L 169.304688 74.261719 L 167.882812 74.261719 Z M 167.882812 78.824219 " fill-opacity="1" fill-rule="nonzero"/><path fill="#1a1a1a" d="M 173.113281 78.824219 L 170.164062 78.824219 L 170.164062 73.121094 L 173.011719 73.121094 L 173.011719 74.261719 L 171.304688 74.261719 L 171.304688 75.402344 L 172.804688 75.402344 L 172.804688 76.542969 L 171.304688 76.542969 L 171.304688 77.683594 L 173.113281 77.683594 Z M 173.113281 78.824219 " fill-opacity="1" fill-rule="nonzero"/><path fill="#1a1a1a" d="M 176.441406 73.121094 L 177.582031 73.121094 L 177.582031 77.683594 L 179.390625 77.683594 L 179.390625 78.824219 L 176.441406 78.824219 Z M 176.441406 73.121094 " fill-opacity="1" fill-rule="nonzero"/><path fill="#1a1a1a" d="M 180.371094 73.121094 L 181.511719 73.121094 L 181.511719 78.824219 L 180.371094 78.824219 Z M 180.371094 73.121094 " fill-opacity="1" fill-rule="nonzero"/><path fill="#1a1a1a" d="M 185.402344 75.542969 L 187.652344 73.03125 L 188.011719 73.03125 L 188.011719 78.824219 L 186.855469 78.824219 L 186.863281 75.644531 L 185.402344 77.171875 L 183.945312 75.644531 L 183.945312 78.824219 L 182.792969 78.824219 L 182.792969 73.03125 L 183.152344 73.03125 Z M 185.402344 75.542969 " fill-opacity="1" fill-rule="nonzero"/><path fill="#1a1a1a" d="M 189.296875 73.121094 L 190.4375 73.121094 L 190.4375 78.824219 L 189.296875 78.824219 Z M 189.296875 73.121094 " fill-opacity="1" fill-rule="nonzero"/><path fill="#1a1a1a" d="M 193.800781 78.824219 L 192.660156 78.824219 L 192.660156 74.261719 L 191.238281 74.261719 L 191.238281 73.132812 L 195.21875 73.132812 L 195.21875 74.261719 L 193.800781 74.261719 Z M 193.800781 78.824219 " fill-opacity="1" fill-rule="nonzero"/><path fill="#1a1a1a" d="M 199.027344 78.824219 L 196.078125 78.824219 L 196.078125 73.121094 L 198.929688 73.121094 L 198.929688 74.261719 L 197.21875 74.261719 L 197.21875 75.402344 L 198.71875 75.402344 L 198.71875 76.542969 L 197.21875 76.542969 L 197.21875 77.683594 L 199.027344 77.683594 Z M 199.027344 78.824219 " fill-opacity="1" fill-rule="nonzero"/><path fill="#1a1a1a" d="M 201.792969 73.121094 C 202.257812 73.121094 202.667969 73.203125 203.023438 73.363281 C 203.382812 73.523438 203.679688 73.742188 203.914062 74.011719 C 204.15625 74.28125 204.335938 74.582031 204.453125 74.921875 C 204.574219 75.261719 204.632812 75.613281 204.632812 75.972656 C 204.632812 76.332031 204.574219 76.683594 204.453125 77.023438 C 204.335938 77.363281 204.15625 77.671875 203.914062 77.941406 C 203.679688 78.210938 203.382812 78.421875 203.023438 78.582031 C 202.667969 78.742188 202.257812 78.824219 201.792969 78.824219 L 200.09375 78.824219 L 200.09375 73.121094 Z M 201.792969 74.261719 L 201.234375 74.261719 L 201.234375 77.683594 L 201.792969 77.683594 C 202.105469 77.683594 202.378906 77.621094 202.605469 77.503906 C 202.828125 77.378906 203.007812 77.210938 203.144531 77.011719 C 203.285156 76.808594 203.375 76.582031 203.414062 76.34375 C 203.460938 76.097656 203.460938 75.851562 203.414062 75.613281 C 203.375 75.367188 203.285156 75.144531 203.144531 74.941406 C 203.007812 74.738281 202.828125 74.574219 202.605469 74.453125 C 202.378906 74.328125 202.105469 74.261719 201.792969 74.261719 Z M 201.792969 74.261719 " fill-opacity="1" fill-rule="nonzero"/></svg>